#!OML:ASF F:\VICON\USERDATA\INSTALL\rory3\rory3.ASF
:FULLY-SPECIFIED
:DEGREES
358
root -0.93946 15.9023 10.7388 0.682472 2.47117 4.74656
lowerback 12.7449 -0.260789 -9.05674
upperback -4.70969 -1.78789 1.56998
thorax -12.1206 -0.0579002 7.29135
lowerneck -10.6584 -4.68248 -3.32917
upperneck 20.2749 -6.20285 1.53332
head 8.19148 -3.05201 0.426001
rclavicle 3.56322e-014 1.59028e-015
rhumerus -45.309 -8.60289 -77.7981
rradius 18.6227
rwrist 16.7026
rhand -11.2623 23.8512
rfingers 7.12502
rthumb 14.7678 -5.6027
lclavicle 3.56322e-014 1.59028e-015
lhumerus -35.7081 3.54693 88.0547
lradius 24.8635
lwrist 1.62994
lhand -5.99555 20.8868
lfingers 7.12502
lthumb 19.8366 49.8945
rfemur -32.672 17.4984 13.541
rtibia 36.9955
rfoot -8.2215 -12.3488
rtoes 40.948
lfemur 14.6252 -5.22694 -29.4992
ltibia 26.5649
lfoot -6.72029 0.377923
ltoes -16.3388
359
root -0.971344 15.9035 10.8942 0.527547 2.469 4.69631
lowerback 12.8973 -0.21426 -9.12916
upperback -4.74437 -1.75694 1.55434
thorax -12.2592 -0.0283085 7.31629
lowerneck -10.4294 -4.67766 -3.25714
upperneck 20.2745 -6.22287 1.5572
head 8.14849 -3.05616 0.425888
rclavicle 2.04748e-014 1.11319e-014
rhumerus -45.0701 -9.38617 -77.2012
rradius 18.1993
rwrist 17.518
rhand -11.218 23.6761
rfingers 7.12502
rthumb 14.8104 -5.77464
lclavicle 2.04748e-014 1.11319e-014
lhumerus -36.1982 3.80846 87.7725
lradius 24.5039
lwrist 1.27865
lhand -5.65792 21.1282
lfingers 7.12502
lthumb 20.1612 50.102
rfemur -32.1877 17.499 14.054
rtibia 37.6288
rfoot -8.59582 -12.0382
rtoes 40.8284
lfemur 13.162 -4.26629 -28.7541
ltibia 29.4875
lfoot -4.70358 -0.544985
ltoes -15.4911
360
root -0.99791 15.9036 11.0442 0.471551 2.4129 4.39473
lowerback 12.9795 -0.177459 -8.81841
upperback -4.83898 -1.66208 1.56477
thorax -12.4396 0.00644732 7.13508
lowerneck -10.0936 -4.71387 -3.38821
upperneck 20.2153 -6.32028 1.84728
head 8.08474 -3.08801 0.541865
rclavicle -1.77912e-014 1.66979e-014
rhumerus -44.8935 -9.99929 -76.761
rradius 17.8558
rwrist 18.1527
rhand -11.0943 23.3693
rfingers 7.12502
rthumb 14.9296 -6.07262
lclavicle -1.77912e-014 1.66979e-014
lhumerus -36.7363 4.06245 87.4328
lradius 23.7848
lwrist 0.456544
lhand -5.6715 19.9085
lfingers 7.12502
lthumb 20.1481 48.8837
rfemur -31.7432 17.6055 14.7529
rtibia 38.0868
rfoot -8.87339 -11.8224
rtoes 41.024
lfemur 11.5327 -3.35485 -27.8208
ltibia 32.4639
lfoot -2.59315 -1.31084
ltoes -16.5597
361
root -1.01999 15.9037 11.1927 0.447477 2.26572 4.1451
lowerback 12.875 -0.106984 -8.52875
upperback -4.82582 -1.50454 1.55802
thorax -12.3926 0.0536445 6.92126
lowerneck -10.1104 -4.79591 -3.50074
upperneck 20.324 -6.47116 2.1036
head 8.1414 -3.14251 0.627305
rclavicle -8.29926e-015 7.95139e-016
rhumerus -44.4703 -11.0187 -76.1321
rradius 17.43
rwrist 19.0357
rhand -10.845 23.0321
rfingers 7.12502
rthumb 15.1699 -6.39188
lclavicle -8.29926e-015 7.95139e-016
lhumerus -37.0336 4.25338 87.11
lradius 22.5598
lwrist -0.888136
lhand -6.3166 17.2225
lfingers 7.12502
lthumb 19.528 46.2619
rfemur -31.2679 17.7766 15.3665
rtibia 38.4069
rfoot -9.17982 -11.7017
rtoes 40.8702
lfemur 9.86464 -2.57465 -27.0703
ltibia 35.4839
lfoot -0.625454 -1.76832
ltoes -15.9469
362
root -1.04486 15.9137 11.3445 0.380921 2.27674 3.89682
lowerback 12.7282 -0.0839683 -8.2678
upperback -4.73723 -1.40737 1.57444
thorax -12.2193 0.0665494 6.76015
lowerneck -10.4507 -4.90966 -3.60881
upperneck 20.577 -6.648 2.29733
head 8.30463 -3.20992 0.678649
rclavicle -2.88238e-015 1.19271e-015
rhumerus -44.049 -11.9514 -75.5848
rradius 17.209
rwrist 19.6516
rhand -10.6396 22.5156
rfingers 7.12502
rthumb 15.3676 -6.89326
lclavicle -2.88238e-015 1.19271e-015
lhumerus -37.2438 4.1306 87.0772
lradius 22.5542
lwrist -0.531909
lhand -5.68213 18.8324
lfingers 7.12502
lthumb 20.1379 47.8087
rfemur -30.5709 17.8524 16.0107
rtibia 38.5496
rfoot -9.73374 -11.5101
rtoes 40.8946
lfemur 8.1258 -2.11144 -26.3535
ltibia 38.5361
lfoot 1.40759 -2.0606
ltoes -12.6611
363
root -1.07024 15.9236 11.4985 0.306522 2.56636 3.499
lowerback 12.6298 -0.183853 -7.90841
upperback -4.69495 -1.45553 1.68018
thorax -12.1013 0.0127801 6.6785
lowerneck -10.8287 -4.93345 -3.61523
upperneck 20.8308 -6.67645 2.29974
head 8.46061 -3.21732 0.664877
rclavicle -3.47376e-014 -1.59028e-015
rhumerus -43.7027 -12.4774 -75.208
rradius 17.0352
rwrist 19.9185
rhand -10.6777 22.2976
rfingers 7.12502
rthumb 15.3309 -7.11411
lclavicle -3.47376e-014 -1.59028e-015
lhumerus -37.6013 4.16356 87.0162
lradius 22.4479
lwrist -0.713351
lhand -5.30758 19.6717
lfingers 7.12502
lthumb 20.4979 48.6096
rfemur -29.6963 17.5254 16.8584
rtibia 38.5463
rfoot -10.1728 -11.2429
rtoes 40.6903
lfemur 6.42566 -1.90331 -25.5049
ltibia 41.6057
lfoot 3.27659 -2.4044
ltoes -11.8102
